<?xml version="1.0" encoding="utf-8"?>
<!-- Generator: Adobe Illustrator 19.0.0, SVG Export Plug-In . SVG Version: 6.00 Build 0)  -->
<svg version="1.1" id="Layer_1" xmlns="http://www.w3.org/2000/svg" xmlns:xlink="http://www.w3.org/1999/xlink" x="0px" y="0px"
	 viewBox="-232.6 282.5 572.1 436.4" style="enable-background:new -232.6 282.5 572.1 436.4;" xml:space="preserve">
<style type="text/css">
	.st0{fill:#00D631;}
	.st1{fill:#A3A3A3;}
	.st2{fill:#FFF544;}
	.st3{fill:#FF0808;}
	.st4{fill:#A114FF;}
</style>
<rect id="XMLID_1_" x="267.1" y="469.7" class="st0" width="62.1" height="62.1"/>
<rect id="XMLID_9_" x="-223" y="382.6" class="st1" width="149.2" height="149.2"/>
<rect id="XMLID_6_" x="105.4" y="561.8" class="st2" width="149.2" height="149.2"/>
<rect id="XMLID_4_" x="180" y="469.7" class="st3" width="62.1" height="62.1"/>
<rect id="XMLID_5_" x="38.1" y="475.9" class="st1" width="37.3" height="37.3"/>
<rect id="XMLID_10_" x="-147.7" y="611.8" class="st1" width="49.2" height="49.2"/>
<rect id="XMLID_11_" x="-98.4" y="562.5" class="st1" width="49.2" height="49.2"/>
<rect id="XMLID_13_" x="-98.4" y="661" class="st1" width="49.2" height="49.2"/>
<rect id="XMLID_8_" x="-49.2" y="611.8" class="st1" width="49.2" height="49.2"/>
<rect id="XMLID_2_" x="180" y="382.6" class="st1" width="62.1" height="62.1"/>
<rect id="XMLID_28_" x="161.3" y="617.7" width="37.3" height="37.3"/>
<rect id="XMLID_29_" x="-167.1" y="438.6" width="37.3" height="37.3"/>
<rect id="XMLID_7_" x="180" y="290.5" class="st1" width="149.2" height="62.1"/>
<rect id="XMLID_12_" x="87.9" y="290.5" class="st4" width="62.1" height="62.1"/>
<rect id="XMLID_17_" x="-222.3" y="290.5" class="st1" width="149.2" height="62.1"/>
<rect id="XMLID_3_" x="267.1" y="382.6" class="st1" width="62.1" height="62.1"/>
</svg>
