<?xml version="1.0" encoding="utf-8"?>
<!-- Generator: Adobe Illustrator 19.0.0, SVG Export Plug-In . SVG Version: 6.00 Build 0)  -->
<svg version="1.1" id="Layer_1" xmlns="http://www.w3.org/2000/svg" xmlns:xlink="http://www.w3.org/1999/xlink" x="0px" y="0px" viewBox="-232.6 282.5 662.1 436.4" style="enable-background:new -232.6 282.5 580 436.4;" xml:space="preserve">
	<style type="text/css">
		.st0{fill:#00D631;}
		.st1{fill:#A3A3A3;}
		.st2{fill:#FFF544;}
		.st3{fill:#FF0808;}
		.st4{fill:#A114FF;}
	</style>
	<rect id="XMLID_1_" x="70" y="440" class="st0" width="90" height="90"></rect>
	<rect id="XMLID_9_" x="-223" y="382.6" class="st1" width="149.2" height="149.2"></rect>
	<rect id="XMLID_6_" x="240" y="380" class="st2" width="150" height="150"></rect>
	<rect id="XMLID_4_" x="0" y="500" class="st3" width="50" height="50"></rect>
	<rect id="XMLID_5_" x="-50" y="490" class="st1" width="37.3" height="37.3"></rect>
	<rect id="XMLID_10_" x="-147.7" y="611.8" class="st1" width="49.2" height="49.2"></rect>
	<rect id="XMLID_11_" x="-98.4" y="562.5" class="st1" width="49.2" height="49.2"></rect>
	<rect id="XMLID_13_" x="-98.4" y="661" class="st1" width="49.2" height="49.2"></rect>
	<rect id="XMLID_8_" x="-49.2" y="611.8" class="st1" width="49.2" height="49.2"></rect>
	<rect id="XMLID_2_" x="70" y="380" class="st1" width="90" height="40"></rect>
	<rect id="XMLID_28_" x="300" y="437" width="30" height="30"></rect>
	<rect id="XMLID_29_" x="-167.1" y="438.6" width="37.3" height="37.3"></rect>
	<rect id="XMLID_7_" x="70" y="290.5" class="st1" width="149.2" height="62.1"></rect>
	<rect id="XMLID_12_" x="180" y="380" class="st4" width="40" height="40"></rect>
	<rect id="XMLID_17_" x="-222.3" y="290.5" class="st1" width="149.2" height="62.1"></rect>
	<rect id="XMLID_3_" x="180" y="440" class="st1" width="40" height="90"></rect>
</svg>
